<mxfile host="app.diagrams.net" modified="2024-06-02T19:04:37.299Z" agent="Mozilla/5.0 (Windows NT 10.0; Win64; x64) AppleWebKit/537.36 (KHTML, like Gecko) Chrome/125.0.0.0 Safari/537.36" etag="B-k921Xmhf7a4ZxVVaZl" version="24.4.13" type="google">
  <diagram name="Сторінка-1" id="KallaxhE7KNO06Sm73bM">
    <mxGraphModel grid="1" page="1" gridSize="10" guides="1" tooltips="1" connect="1" arrows="1" fold="1" pageScale="1" pageWidth="827" pageHeight="1169" math="0" shadow="0">
      <root>
        <mxCell id="0" />
        <mxCell id="1" parent="0" />
        <mxCell id="cJrB7qEOVv96VxRY1FAp-1" style="edgeStyle=orthogonalEdgeStyle;rounded=0;orthogonalLoop=1;jettySize=auto;html=1;exitX=0.5;exitY=0.5;exitDx=0;exitDy=0;exitPerimeter=0;entryX=0;entryY=0.5;entryDx=0;entryDy=0;fillColor=#d80073;strokeColor=#A50040;" edge="1" parent="1" source="cJrB7qEOVv96VxRY1FAp-4" target="cJrB7qEOVv96VxRY1FAp-15">
          <mxGeometry relative="1" as="geometry" />
        </mxCell>
        <mxCell id="cJrB7qEOVv96VxRY1FAp-2" style="edgeStyle=orthogonalEdgeStyle;rounded=0;orthogonalLoop=1;jettySize=auto;html=1;exitX=0.5;exitY=0.5;exitDx=0;exitDy=0;exitPerimeter=0;entryX=0;entryY=0.75;entryDx=0;entryDy=0;fillColor=#d80073;strokeColor=#A50040;" edge="1" parent="1" source="cJrB7qEOVv96VxRY1FAp-4" target="cJrB7qEOVv96VxRY1FAp-18">
          <mxGeometry relative="1" as="geometry" />
        </mxCell>
        <mxCell id="cJrB7qEOVv96VxRY1FAp-3" style="edgeStyle=orthogonalEdgeStyle;rounded=0;orthogonalLoop=1;jettySize=auto;html=1;exitX=0.5;exitY=0.5;exitDx=0;exitDy=0;exitPerimeter=0;entryX=0;entryY=0.5;entryDx=0;entryDy=0;fillColor=#d80073;strokeColor=#A50040;" edge="1" parent="1" source="cJrB7qEOVv96VxRY1FAp-4" target="cJrB7qEOVv96VxRY1FAp-22">
          <mxGeometry relative="1" as="geometry" />
        </mxCell>
        <mxCell id="cJrB7qEOVv96VxRY1FAp-4" value="Незареєстрований користувач" style="shape=umlActor;verticalLabelPosition=bottom;verticalAlign=top;html=1;outlineConnect=0;" vertex="1" parent="1">
          <mxGeometry x="80" y="40" width="30" height="60" as="geometry" />
        </mxCell>
        <mxCell id="cJrB7qEOVv96VxRY1FAp-5" style="edgeStyle=orthogonalEdgeStyle;rounded=0;orthogonalLoop=1;jettySize=auto;html=1;exitX=0.5;exitY=0.5;exitDx=0;exitDy=0;exitPerimeter=0;entryX=0;entryY=0.5;entryDx=0;entryDy=0;fillColor=#dae8fc;strokeColor=#6c8ebf;" edge="1" parent="1" source="cJrB7qEOVv96VxRY1FAp-11" target="cJrB7qEOVv96VxRY1FAp-16">
          <mxGeometry relative="1" as="geometry" />
        </mxCell>
        <mxCell id="cJrB7qEOVv96VxRY1FAp-6" style="edgeStyle=orthogonalEdgeStyle;rounded=0;orthogonalLoop=1;jettySize=auto;html=1;exitX=0.5;exitY=0.5;exitDx=0;exitDy=0;exitPerimeter=0;entryX=0;entryY=0.25;entryDx=0;entryDy=0;fillColor=#dae8fc;strokeColor=#6c8ebf;" edge="1" parent="1" source="cJrB7qEOVv96VxRY1FAp-11" target="cJrB7qEOVv96VxRY1FAp-18">
          <mxGeometry relative="1" as="geometry" />
        </mxCell>
        <mxCell id="cJrB7qEOVv96VxRY1FAp-7" style="edgeStyle=orthogonalEdgeStyle;rounded=0;orthogonalLoop=1;jettySize=auto;html=1;exitX=0.5;exitY=0.5;exitDx=0;exitDy=0;exitPerimeter=0;entryX=0;entryY=0.5;entryDx=0;entryDy=0;fillColor=#dae8fc;strokeColor=#6c8ebf;" edge="1" parent="1" source="cJrB7qEOVv96VxRY1FAp-11" target="cJrB7qEOVv96VxRY1FAp-19">
          <mxGeometry relative="1" as="geometry" />
        </mxCell>
        <mxCell id="cJrB7qEOVv96VxRY1FAp-8" style="edgeStyle=orthogonalEdgeStyle;rounded=0;orthogonalLoop=1;jettySize=auto;html=1;exitX=0.5;exitY=0.5;exitDx=0;exitDy=0;exitPerimeter=0;entryX=0;entryY=0.25;entryDx=0;entryDy=0;fillColor=#dae8fc;strokeColor=#6c8ebf;" edge="1" parent="1" source="cJrB7qEOVv96VxRY1FAp-11" target="cJrB7qEOVv96VxRY1FAp-22">
          <mxGeometry relative="1" as="geometry" />
        </mxCell>
        <mxCell id="cJrB7qEOVv96VxRY1FAp-9" style="edgeStyle=orthogonalEdgeStyle;rounded=0;orthogonalLoop=1;jettySize=auto;html=1;exitX=0.5;exitY=0.5;exitDx=0;exitDy=0;exitPerimeter=0;entryX=0;entryY=0.75;entryDx=0;entryDy=0;fillColor=#dae8fc;strokeColor=#6c8ebf;" edge="1" parent="1" source="cJrB7qEOVv96VxRY1FAp-11" target="cJrB7qEOVv96VxRY1FAp-21">
          <mxGeometry relative="1" as="geometry" />
        </mxCell>
        <mxCell id="cJrB7qEOVv96VxRY1FAp-10" style="edgeStyle=orthogonalEdgeStyle;rounded=0;orthogonalLoop=1;jettySize=auto;html=1;exitX=0.5;exitY=0.5;exitDx=0;exitDy=0;exitPerimeter=0;entryX=0;entryY=0.75;entryDx=0;entryDy=0;fillColor=#dae8fc;strokeColor=#6c8ebf;" edge="1" parent="1" source="cJrB7qEOVv96VxRY1FAp-11" target="cJrB7qEOVv96VxRY1FAp-20">
          <mxGeometry relative="1" as="geometry" />
        </mxCell>
        <mxCell id="cJrB7qEOVv96VxRY1FAp-11" value="Зареєстрований користувач" style="shape=umlActor;verticalLabelPosition=bottom;verticalAlign=top;html=1;outlineConnect=0;" vertex="1" parent="1">
          <mxGeometry x="30" y="240" width="30" height="60" as="geometry" />
        </mxCell>
        <mxCell id="cJrB7qEOVv96VxRY1FAp-12" style="edgeStyle=orthogonalEdgeStyle;rounded=0;orthogonalLoop=1;jettySize=auto;html=1;exitX=0.5;exitY=0.5;exitDx=0;exitDy=0;exitPerimeter=0;entryX=0;entryY=0.75;entryDx=0;entryDy=0;" edge="1" parent="1" source="cJrB7qEOVv96VxRY1FAp-14" target="cJrB7qEOVv96VxRY1FAp-25">
          <mxGeometry relative="1" as="geometry" />
        </mxCell>
        <mxCell id="cJrB7qEOVv96VxRY1FAp-13" style="edgeStyle=orthogonalEdgeStyle;rounded=0;orthogonalLoop=1;jettySize=auto;html=1;exitX=0.5;exitY=0.5;exitDx=0;exitDy=0;exitPerimeter=0;entryX=0;entryY=0.75;entryDx=0;entryDy=0;" edge="1" parent="1" source="cJrB7qEOVv96VxRY1FAp-14" target="cJrB7qEOVv96VxRY1FAp-23">
          <mxGeometry relative="1" as="geometry" />
        </mxCell>
        <mxCell id="cJrB7qEOVv96VxRY1FAp-14" value="Продавець" style="shape=umlActor;verticalLabelPosition=bottom;verticalAlign=top;html=1;outlineConnect=0;" vertex="1" parent="1">
          <mxGeometry x="80" y="460" width="30" height="60" as="geometry" />
        </mxCell>
        <mxCell id="cJrB7qEOVv96VxRY1FAp-15" value="Реєстрація" style="rounded=1;whiteSpace=wrap;html=1;" vertex="1" parent="1">
          <mxGeometry x="320" y="10" width="120" height="60" as="geometry" />
        </mxCell>
        <mxCell id="cJrB7qEOVv96VxRY1FAp-16" value="Вхід" style="rounded=1;whiteSpace=wrap;html=1;" vertex="1" parent="1">
          <mxGeometry x="320" y="80" width="120" height="60" as="geometry" />
        </mxCell>
        <mxCell id="cJrB7qEOVv96VxRY1FAp-17" style="edgeStyle=orthogonalEdgeStyle;rounded=0;orthogonalLoop=1;jettySize=auto;html=1;exitX=1;exitY=0.5;exitDx=0;exitDy=0;entryX=1;entryY=0.5;entryDx=0;entryDy=0;" edge="1" parent="1" source="cJrB7qEOVv96VxRY1FAp-18" target="cJrB7qEOVv96VxRY1FAp-22">
          <mxGeometry relative="1" as="geometry" />
        </mxCell>
        <mxCell id="cJrB7qEOVv96VxRY1FAp-18" value="Пошук товару" style="rounded=1;whiteSpace=wrap;html=1;" vertex="1" parent="1">
          <mxGeometry x="320" y="150" width="120" height="60" as="geometry" />
        </mxCell>
        <mxCell id="cJrB7qEOVv96VxRY1FAp-19" value="Додати до обраного" style="rounded=1;whiteSpace=wrap;html=1;" vertex="1" parent="1">
          <mxGeometry x="320" y="220" width="120" height="60" as="geometry" />
        </mxCell>
        <mxCell id="cJrB7qEOVv96VxRY1FAp-20" value="Додати до порівняння" style="rounded=1;whiteSpace=wrap;html=1;" vertex="1" parent="1">
          <mxGeometry x="320" y="290" width="120" height="60" as="geometry" />
        </mxCell>
        <mxCell id="cJrB7qEOVv96VxRY1FAp-21" value="Написання відгуків" style="rounded=1;whiteSpace=wrap;html=1;" vertex="1" parent="1">
          <mxGeometry x="320" y="360" width="120" height="60" as="geometry" />
        </mxCell>
        <mxCell id="cJrB7qEOVv96VxRY1FAp-22" value="Оформлення замовлення" style="rounded=1;whiteSpace=wrap;html=1;" vertex="1" parent="1">
          <mxGeometry x="320" y="430" width="120" height="60" as="geometry" />
        </mxCell>
        <mxCell id="cJrB7qEOVv96VxRY1FAp-23" value="Змінити наявність товару" style="rounded=1;whiteSpace=wrap;html=1;" vertex="1" parent="1">
          <mxGeometry x="320" y="570" width="120" height="60" as="geometry" />
        </mxCell>
        <mxCell id="cJrB7qEOVv96VxRY1FAp-24" style="edgeStyle=orthogonalEdgeStyle;rounded=0;orthogonalLoop=1;jettySize=auto;html=1;exitX=1;exitY=0.5;exitDx=0;exitDy=0;entryX=0;entryY=0.5;entryDx=0;entryDy=0;" edge="1" parent="1" source="cJrB7qEOVv96VxRY1FAp-25" target="cJrB7qEOVv96VxRY1FAp-26">
          <mxGeometry relative="1" as="geometry" />
        </mxCell>
        <mxCell id="cJrB7qEOVv96VxRY1FAp-25" value="Зміна товару" style="rounded=1;whiteSpace=wrap;html=1;" vertex="1" parent="1">
          <mxGeometry x="320" y="500" width="120" height="60" as="geometry" />
        </mxCell>
        <mxCell id="cJrB7qEOVv96VxRY1FAp-26" value="Додавання/видалення товару" style="rounded=1;whiteSpace=wrap;html=1;" vertex="1" parent="1">
          <mxGeometry x="520" y="500" width="120" height="60" as="geometry" />
        </mxCell>
        <mxCell id="cJrB7qEOVv96VxRY1FAp-27" value="Зміна ціни товару" style="rounded=1;whiteSpace=wrap;html=1;" vertex="1" parent="1">
          <mxGeometry x="520" y="570" width="120" height="60" as="geometry" />
        </mxCell>
        <mxCell id="cJrB7qEOVv96VxRY1FAp-28" style="edgeStyle=orthogonalEdgeStyle;rounded=0;orthogonalLoop=1;jettySize=auto;html=1;exitX=1;exitY=0.5;exitDx=0;exitDy=0;entryX=0.005;entryY=0.627;entryDx=0;entryDy=0;entryPerimeter=0;" edge="1" parent="1" source="cJrB7qEOVv96VxRY1FAp-25" target="cJrB7qEOVv96VxRY1FAp-27">
          <mxGeometry relative="1" as="geometry" />
        </mxCell>
      </root>
    </mxGraphModel>
  </diagram>
</mxfile>
